<svg width="24" height="24" viewBox="0 0 24 24" fill="none" xmlns="http://www.w3.org/2000/svg">
<path fill-rule="evenodd" clip-rule="evenodd" d="M6.85341 1.12797C8.78814 0.732022 10.8005 1.01714 12.5497 1.93425C14.2988 2.85141 15.6784 4.34452 16.4542 6.16164C18.5344 6.4125 20.4512 7.41701 21.8415 8.9855C23.2319 10.5541 23.9996 12.5786 24 14.6752V21.5361C24 21.991 23.8194 22.4276 23.4979 22.7492C23.1765 23.0709 22.7403 23.2513 22.2857 23.2513H15.4286C13.7611 23.2494 12.1298 22.7625 10.7346 21.8487C9.33945 20.9349 8.24084 19.634 7.57197 18.1056H1.71429C1.2597 18.1056 0.823537 17.9252 0.502061 17.6036C0.180588 17.2819 1.93817e-05 16.8453 0 16.3904V9.52955C0.00034054 7.55361 0.682954 5.63839 1.93172 4.10767C3.18048 2.57703 4.91877 1.52398 6.85341 1.12797ZM17.0038 7.99724C17.2158 9.15896 17.1849 10.352 16.9142 11.5014C16.6435 12.6509 16.1385 13.7322 15.4304 14.6771C14.7224 15.6219 13.8267 16.4103 12.7998 16.9923C11.7728 17.5744 10.6365 17.938 9.46263 18.0599C10.0621 19.1144 10.9299 19.9914 11.9776 20.602C13.0254 21.2126 14.2161 21.5347 15.4286 21.5361H22.2857V14.6752C22.2857 13.1296 21.7643 11.629 20.8057 10.417C19.847 9.20507 18.5072 8.35231 17.0038 7.99724ZM10.9893 9.32985C10.9887 8.80286 9.91937 9.33078 8.60036 9.33078C7.28134 9.33078 6.212 8.80286 6.21137 9.32985C6.21137 9.85761 7.28096 10.2854 8.60036 10.2854C9.91976 10.2854 10.9893 9.85761 10.9893 9.32985ZM5.09806 6.68796C4.65757 6.68796 4.30024 7.05056 4.30018 7.49798C4.3002 7.94544 4.65754 8.308 5.09806 8.308C5.53848 8.30787 5.895 7.94536 5.89502 7.49798C5.89496 7.05064 5.53845 6.68809 5.09806 6.68796ZM11.7872 6.68796C11.3467 6.68796 10.9894 7.05056 10.9893 7.49798C10.9894 7.94544 11.3467 8.308 11.7872 8.308C12.2276 8.30787 12.5842 7.94536 12.5842 7.49798C12.5841 7.05064 12.2276 6.68809 11.7872 6.68796Z" fill="#01A06A"/>
</svg>
