<svg width="180" height="31" viewBox="0 0 180 31" fill="none" xmlns="http://www.w3.org/2000/svg">
<path d="M56.943 30.2244C53.9374 30.2244 51.3146 29.5908 49.0745 28.3235C46.8628 27.0274 45.1615 25.2705 43.9706 23.0528C42.7797 20.8062 42.1842 18.2429 42.1842 15.3627C42.1842 12.4825 42.7797 9.93357 43.9706 7.71583C45.1899 5.46928 46.9053 3.71238 49.117 2.4451C51.3287 1.14901 53.9374 0.500977 56.943 0.500977C58.8995 0.500977 60.7709 0.774592 62.5573 1.32183C64.3437 1.84026 65.9883 2.64671 67.4911 3.74118L65.5771 7.71583C64.2161 6.88057 62.8125 6.23253 61.3664 5.7717C59.9203 5.31087 58.4458 5.08046 56.943 5.08046C55.0432 5.08046 53.3703 5.51248 51.9242 6.37654C50.5064 7.2406 49.4006 8.45027 48.6066 10.0056C47.8411 11.5321 47.4583 13.3178 47.4583 15.3627C47.4583 17.3788 47.8411 19.1645 48.6066 20.7198C49.4006 22.2751 50.5064 23.4848 51.9242 24.3489C53.3703 25.2129 55.0432 25.6449 56.943 25.6449C58.4458 25.6449 59.7927 25.3857 60.9836 24.8673C62.1745 24.3201 63.1669 23.5568 63.9609 22.5776V17.8685H56.5177V13.6346H69.1499V24.3057C67.8739 26.1778 66.2009 27.6323 64.131 28.6691C62.0894 29.706 59.6935 30.2244 56.943 30.2244Z" fill="white"/>
<path d="M79.8228 30.2244C78.4051 30.2244 77.1291 29.994 75.9949 29.5332C74.8891 29.0724 74.0101 28.3955 73.3579 27.5027C72.7341 26.581 72.4222 25.4577 72.4222 24.1328C72.4222 22.7792 72.7483 21.6847 73.4004 20.8494C74.0526 19.9854 74.9316 19.3229 76.0375 18.8621C77.1433 18.3725 78.4051 18.0413 79.8228 17.8685L86.5855 17.0044C86.4154 15.6795 85.8766 14.7147 84.9693 14.1098C84.0903 13.505 83.027 13.2026 81.7793 13.2026C80.8436 13.2026 79.8654 13.3898 78.8446 13.7642C77.8522 14.1098 76.7463 14.6715 75.5271 15.4491L73.8683 11.8201C75.0876 10.9272 76.3777 10.2504 77.7387 9.78955C79.1281 9.29992 80.5459 9.05511 81.992 9.05511C85.1111 9.05511 87.4787 9.76075 89.0949 11.172C90.7112 12.5545 91.5193 14.6426 91.5193 17.4364V29.7924H86.8407V27.157C86.1035 28.2227 85.1536 29.0004 83.991 29.49C82.8285 29.9796 81.4391 30.2244 79.8228 30.2244ZM81.1839 26.2498C82.3464 26.2498 83.3247 26.0194 84.1186 25.5585C84.9409 25.0977 85.5647 24.4785 85.9901 23.7008C86.4437 22.9232 86.6706 22.1167 86.6706 21.2815V20.5038L81.354 21.1951C80.0213 21.3679 79.0289 21.6559 78.3767 22.0591C77.7246 22.4623 77.3985 23.0672 77.3985 23.8736C77.3985 24.6513 77.7246 25.2417 78.3767 25.6449C79.0289 26.0482 79.9646 26.2498 81.1839 26.2498Z" fill="white"/>
<path d="M97.2854 29.7924V9.48714H101.964V12.8137C102.503 11.5753 103.24 10.668 104.176 10.092C105.111 9.51594 106.16 9.22792 107.323 9.22792C107.72 9.22792 108.074 9.25672 108.386 9.31432C108.698 9.34313 108.939 9.40073 109.109 9.48714V14.1962C108.712 14.1098 108.315 14.0378 107.919 13.9802C107.522 13.9226 107.125 13.8938 106.728 13.8938C105.423 13.8938 104.332 14.4266 103.453 15.4923C102.574 16.5292 102.134 18.0269 102.134 19.9854V29.7924H97.2854Z" fill="white"/>
<path d="M120.579 30.2244C118.792 30.2244 117.176 29.8068 115.73 28.9715C114.284 28.1075 113.135 26.8834 112.285 25.2993C111.434 23.7152 111.009 21.8287 111.009 19.6398C111.009 17.4508 111.434 15.5643 112.285 13.9802C113.135 12.3961 114.284 11.1864 115.73 10.3512C117.176 9.48713 118.792 9.05511 120.579 9.05511C122.081 9.05511 123.386 9.34313 124.492 9.91916C125.597 10.4664 126.476 11.1864 127.128 12.0793V0.933003H132.02V29.7924H127.384V26.8546C126.76 27.8627 125.867 28.6835 124.704 29.3172C123.542 29.922 122.166 30.2244 120.579 30.2244ZM121.684 25.9474C122.79 25.9474 123.768 25.6881 124.619 25.1697C125.47 24.6513 126.136 23.9168 126.618 22.9664C127.1 22.0159 127.341 20.9071 127.341 19.6398C127.341 18.3437 127.1 17.2348 126.618 16.3132C126.136 15.3627 125.47 14.6283 124.619 14.1098C123.768 13.5914 122.79 13.3322 121.684 13.3322C120.579 13.3322 119.586 13.5914 118.707 14.1098C117.856 14.6283 117.19 15.3627 116.708 16.3132C116.254 17.2348 116.028 18.3437 116.028 19.6398C116.028 20.9071 116.254 22.0159 116.708 22.9664C117.19 23.9168 117.856 24.6513 118.707 25.1697C119.586 25.6881 120.579 25.9474 121.684 25.9474Z" fill="white"/>
<path d="M147.609 30.2244C145.567 30.2244 143.724 29.8212 142.079 29.0147C140.435 28.2083 139.116 27.0274 138.124 25.4721C137.16 23.888 136.678 21.9439 136.678 19.6398C136.678 17.4796 137.131 15.6075 138.039 14.0234C138.974 12.4393 140.208 11.2152 141.739 10.3512C143.299 9.48713 145.042 9.05511 146.971 9.05511C148.955 9.05511 150.685 9.44393 152.16 10.2216C153.634 10.9704 154.782 12.0073 155.605 13.3322C156.427 14.6571 156.838 16.1691 156.838 17.8685C156.838 18.3581 156.767 18.9053 156.625 19.5102C156.484 20.115 156.299 20.6046 156.072 20.9791H141.654C141.796 22.1023 142.136 23.0528 142.675 23.8304C143.242 24.5793 143.979 25.1553 144.886 25.5585C145.794 25.933 146.857 26.1202 148.076 26.1202C149.324 26.1202 150.458 25.933 151.479 25.5585C152.5 25.1553 153.464 24.6225 154.371 23.96L155.987 27.5027C154.825 28.3955 153.535 29.0724 152.117 29.5332C150.728 29.994 149.225 30.2244 147.609 30.2244ZM141.654 17.5228H151.819C151.848 17.4364 151.862 17.3644 151.862 17.3068C151.862 17.2204 151.862 17.1484 151.862 17.0908C151.862 16.2556 151.692 15.5355 151.351 14.9307C151.011 14.3258 150.487 13.865 149.778 13.5482C149.097 13.2026 148.204 13.0298 147.098 13.0298C146.191 13.0298 145.354 13.217 144.589 13.5914C143.851 13.937 143.228 14.441 142.717 15.1035C142.207 15.7659 141.852 16.5724 141.654 17.5228Z" fill="white"/>
<path d="M161.541 29.7924V9.48714H166.219V12.2521C166.815 11.2728 167.651 10.4952 168.729 9.91916C169.806 9.34313 171.125 9.05511 172.684 9.05511C174.981 9.05511 176.768 9.71755 178.044 11.0424C179.348 12.3673 180 14.4122 180 17.1772V29.7924H175.151V17.9117C175.151 16.3276 174.825 15.1755 174.173 14.4554C173.549 13.7066 172.585 13.3322 171.281 13.3322C169.75 13.3322 168.545 13.865 167.666 14.9307C166.815 15.9675 166.39 17.422 166.39 19.2941V29.7924H161.541Z" fill="white"/>
<path fill-rule="evenodd" clip-rule="evenodd" d="M9.13598 0.759324C11.7151 0.231512 14.3977 0.611611 16.7294 1.83415C19.0611 3.05675 20.9002 5.04724 21.9343 7.46949C24.7075 7.8039 27.2625 9.14415 29.116 11.2351C30.9692 13.3261 31.9928 16.0238 31.9933 18.8186V27.9645C31.9933 28.5709 31.7526 29.1529 31.3241 29.5817C30.8955 30.0105 30.3142 30.251 29.7081 30.251H20.5672C18.3443 30.2485 16.1697 29.5994 14.3098 28.3812C12.45 27.1631 10.9855 25.4289 10.0939 23.3915H2.28524C1.67921 23.3915 1.09783 23.151 0.669275 22.7222C0.240711 22.2934 0 21.7115 0 21.105V11.9591C0.000453967 9.32502 0.910363 6.77198 2.57509 4.73143C4.23976 2.69099 6.55698 1.28723 9.13598 0.759324ZM22.667 9.91645C22.9496 11.465 22.9084 13.0554 22.5476 14.5877C22.1868 16.12 21.5135 17.5615 20.5696 18.821C19.6257 20.0806 18.4318 21.1315 17.0628 21.9074C15.6938 22.6833 14.1791 23.1681 12.6142 23.3306C13.4133 24.7363 14.5702 25.9053 15.9668 26.7192C17.3635 27.5332 18.9508 27.9626 20.5672 27.9645H29.7081V18.8186C29.7081 16.7581 29.013 14.7578 27.7351 13.1422C26.4572 11.5265 24.6712 10.3898 22.667 9.91645ZM14.6494 11.6929C14.6483 10.9907 13.2229 11.6941 11.4648 11.6941C9.70658 11.6941 8.28117 10.9907 8.2801 11.6929C8.2801 12.3964 9.70592 12.9668 11.4648 12.9668C13.2236 12.9668 14.6494 12.3964 14.6494 11.6929ZM6.796 8.17111C6.20886 8.17111 5.73255 8.65455 5.73238 9.25091C5.7324 9.84739 6.20877 10.3307 6.796 10.3307C7.3831 10.3305 7.85836 9.84729 7.85839 9.25091C7.85822 8.65466 7.38301 8.17128 6.796 8.17111ZM15.713 8.17111C15.1259 8.17111 14.6496 8.65455 14.6494 9.25091C14.6494 9.84739 15.1258 10.3307 15.713 10.3307C16.3001 10.3305 16.7754 9.84729 16.7754 9.25091C16.7753 8.65466 16.3 8.17128 15.713 8.17111Z" fill="white"/>
</svg>
