<svg width="36" height="36" viewBox="0 0 36 36" fill="none" xmlns="http://www.w3.org/2000/svg">
<g clip-path="url(#clip0_3896_33633)">
<path d="M32.9469 16.1508L26.6188 21.6112L28.5468 29.7773C28.6532 30.2206 28.6258 30.6855 28.4681 31.1132C28.3104 31.541 28.0294 31.9124 27.6608 32.1805C27.2921 32.4487 26.8522 32.6016 26.3967 32.6199C25.9412 32.6381 25.4905 32.521 25.1015 32.2833L17.9999 27.9126L10.8941 32.2833C10.5052 32.5196 10.055 32.6357 9.6003 32.6167C9.14556 32.5978 8.7066 32.4447 8.3387 32.1767C7.97079 31.9088 7.69038 31.538 7.53278 31.1111C7.37518 30.6841 7.34743 30.22 7.45304 29.7773L9.38804 21.6112L3.05991 16.1508C2.7158 15.8534 2.46693 15.4612 2.34439 15.0232C2.22184 14.5852 2.23105 14.1208 2.37087 13.688C2.51069 13.2552 2.77491 12.8731 3.13055 12.5896C3.48618 12.3061 3.91747 12.1336 4.37054 12.0937L12.6674 11.4244L15.868 3.67874C16.0413 3.2566 16.3361 2.89552 16.7151 2.6414C17.0941 2.38727 17.5401 2.25159 17.9964 2.25159C18.4527 2.25159 18.8987 2.38727 19.2777 2.6414C19.6567 2.89552 19.9515 3.2566 20.1248 3.67874L23.324 11.4244L31.6208 12.0937C32.0748 12.1321 32.5074 12.3036 32.8643 12.5868C33.2212 12.8699 33.4867 13.2521 33.6273 13.6854C33.768 14.1187 33.7777 14.5839 33.6552 15.0227C33.5326 15.4615 33.2833 15.8544 32.9385 16.1522L32.9469 16.1508Z" fill="url(#paint0_linear_3896_33633)"/>
</g>
<defs>
<linearGradient id="paint0_linear_3896_33633" x1="17.9996" y1="2.25159" x2="17.9996" y2="32.6217" gradientUnits="userSpaceOnUse">
<stop stop-color="#97C2F9"/>
<stop offset="1" stop-color="#3164E4"/>
</linearGradient>
<clipPath id="clip0_3896_33633">
<rect width="36" height="36" fill="white"/>
</clipPath>
</defs>
</svg>
