<svg width="36" height="36" viewBox="0 0 36 36" fill="none" xmlns="http://www.w3.org/2000/svg">
<g clip-path="url(#clip0_3896_33632)">
<path d="M30.0727 17.6428L14.3227 34.5178C14.1558 34.6959 13.9355 34.8149 13.695 34.8569C13.4545 34.8988 13.2069 34.8614 12.9896 34.7502C12.7723 34.6391 12.597 34.4603 12.4902 34.2408C12.3834 34.0213 12.3509 33.773 12.3975 33.5334L14.4591 23.2214L6.35488 20.1783C6.18083 20.1132 6.02562 20.006 5.90311 19.8662C5.78061 19.7265 5.69462 19.5586 5.65283 19.3776C5.61105 19.1965 5.61477 19.0079 5.66366 18.8286C5.71255 18.6493 5.80509 18.4849 5.93301 18.3502L21.683 1.47516C21.8499 1.29703 22.0702 1.17803 22.3107 1.1361C22.5512 1.09418 22.7988 1.1316 23.0161 1.24273C23.2334 1.35386 23.4087 1.53267 23.5155 1.75216C23.6223 1.97166 23.6548 2.21994 23.6082 2.45953L21.541 12.7828L29.6452 15.8217C29.818 15.8873 29.9719 15.9943 30.0935 16.1335C30.215 16.2727 30.3004 16.4397 30.3421 16.6197C30.3838 16.7997 30.3806 16.9872 30.3326 17.1657C30.2846 17.3441 30.1934 17.508 30.0671 17.6428H30.0727Z" fill="url(#paint0_linear_3896_33632)"/>
</g>
<defs>
<linearGradient id="paint0_linear_3896_33632" x1="17.9976" y1="1.11938" x2="17.9976" y2="34.8736" gradientUnits="userSpaceOnUse">
<stop stop-color="#FFA432"/>
<stop offset="1" stop-color="#EFD320"/>
</linearGradient>
<clipPath id="clip0_3896_33632">
<rect width="36" height="36" fill="white"/>
</clipPath>
</defs>
</svg>
