<svg width="36" height="36" viewBox="0 0 36 36" fill="none" xmlns="http://www.w3.org/2000/svg">
<g clip-path="url(#clip0_3896_33635)">
<path d="M29.2967 25.9011C29.5197 26.1241 29.6966 26.3888 29.8172 26.6801C29.9379 26.9714 30 27.2836 30 27.5989C30 27.9142 29.9379 28.2265 29.8172 28.5178C29.6966 28.8091 29.5197 29.0738 29.2967 29.2967C29.0738 29.5197 28.8091 29.6966 28.5178 29.8172C28.2265 29.9379 27.9142 30 27.5989 30C27.2836 30 26.9714 29.9379 26.6801 29.8172C26.3888 29.6966 26.1241 29.5197 25.9011 29.2967L18 21.3926L10.0989 29.2967C9.87592 29.5197 9.61123 29.6966 9.31992 29.8172C9.02861 29.9379 8.71638 30 8.40107 30C8.08576 30 7.77353 29.9379 7.48222 29.8172C7.19091 29.6966 6.92622 29.5197 6.70326 29.2967C6.4803 29.0738 6.30343 28.8091 6.18277 28.5178C6.0621 28.2265 6 27.9142 6 27.5989C6 27.2836 6.0621 26.9714 6.18277 26.6801C6.30343 26.3888 6.4803 26.1241 6.70326 25.9011L14.6074 18L6.70326 10.0989C6.25297 9.64859 6 9.03787 6 8.40107C6 7.76426 6.25297 7.15354 6.70326 6.70325C7.15354 6.25297 7.76427 6 8.40107 6C9.03787 6 9.64859 6.25297 10.0989 6.70325L18 14.6074L25.9011 6.70325C26.1241 6.48029 26.3888 6.30343 26.6801 6.18277C26.9714 6.0621 27.2836 6 27.5989 6C27.9142 6 28.2265 6.0621 28.5178 6.18277C28.8091 6.30343 29.0738 6.48029 29.2967 6.70325C29.5197 6.92621 29.6966 7.19091 29.8172 7.48222C29.9379 7.77353 30 8.08575 30 8.40107C30 8.71638 29.9379 9.0286 29.8172 9.31992C29.6966 9.61123 29.5197 9.87592 29.2967 10.0989L21.3926 18L29.2967 25.9011Z" fill="#DF1F60"/>
</g>
<defs>
<clipPath id="clip0_3896_33635">
<rect width="36" height="36" fill="white"/>
</clipPath>
</defs>
</svg>
