<svg width="36" height="36" viewBox="0 0 36 36" fill="none" xmlns="http://www.w3.org/2000/svg">
<g clip-path="url(#clip0_3896_33634)">
<path d="M32.0625 18C32.0628 21.6972 30.6071 25.2458 28.0105 27.8777C25.4139 30.5096 21.8853 32.013 18.1884 32.0625H18C14.4099 32.0701 10.9546 30.6959 8.35031 28.2249C8.02491 27.9175 7.83491 27.4935 7.82212 27.0461C7.80933 26.5987 7.97479 26.1646 8.28211 25.8392C8.58943 25.5138 9.01343 25.3238 9.46084 25.311C9.90824 25.2982 10.3424 25.4636 10.6678 25.771C12.1953 27.2131 14.114 28.1731 16.184 28.5309C18.254 28.8888 20.3836 28.6287 22.3067 27.7831C24.2297 26.9375 25.8609 25.5439 26.9964 23.7765C28.1318 22.0091 28.7213 19.9462 28.691 17.8457C28.6608 15.7452 28.0122 13.7002 26.8262 11.9662C25.6403 10.2322 23.9697 8.88622 22.0231 8.09636C20.0765 7.3065 17.9403 7.10782 15.8815 7.52515C13.8226 7.94248 11.9324 8.95731 10.447 10.4428C10.4288 10.4611 10.4119 10.478 10.3922 10.4949L7.71891 12.9375H10.125C10.5726 12.9375 11.0018 13.1153 11.3182 13.4318C11.6347 13.7482 11.8125 14.1775 11.8125 14.625C11.8125 15.0726 11.6347 15.5018 11.3182 15.8183C11.0018 16.1347 10.5726 16.3125 10.125 16.3125H3.375C2.92745 16.3125 2.49823 16.1347 2.18176 15.8183C1.86529 15.5018 1.6875 15.0726 1.6875 14.625V7.87502C1.6875 7.42747 1.86529 6.99825 2.18176 6.68178C2.49823 6.36531 2.92745 6.18752 3.375 6.18752C3.82255 6.18752 4.25178 6.36531 4.56824 6.68178C4.88471 6.99825 5.0625 7.42747 5.0625 7.87502V10.7888L8.08313 8.02408C10.0531 6.06465 12.5595 4.73274 15.2858 4.19644C18.0121 3.66015 20.8361 3.94351 23.4015 5.01077C25.9669 6.07803 28.1587 7.88135 29.7001 10.1931C31.2415 12.5049 32.0636 15.2215 32.0625 18Z" fill="url(#paint0_linear_3896_33634)"/>
</g>
<defs>
<linearGradient id="paint0_linear_3896_33634" x1="16.875" y1="3.93201" x2="16.875" y2="32.0626" gradientUnits="userSpaceOnUse">
<stop stop-color="#636A74"/>
<stop offset="1" stop-color="#363A3F"/>
</linearGradient>
<clipPath id="clip0_3896_33634">
<rect width="36" height="36" fill="white"/>
</clipPath>
</defs>
</svg>
