<svg width="180" height="31" viewBox="0 0 180 31" fill="none" xmlns="http://www.w3.org/2000/svg">
<path d="M56.943 30.2234C53.9374 30.2234 51.3146 29.5898 49.0745 28.3225C46.8628 27.0264 45.1615 25.2695 43.9706 23.0518C42.7797 20.8053 42.1842 18.2419 42.1842 15.3617C42.1842 12.4815 42.7797 9.9326 43.9706 7.71485C45.1899 5.4683 46.9053 3.7114 49.117 2.44412C51.3287 1.14804 53.9374 0.5 56.943 0.5C58.8995 0.5 60.7709 0.773615 62.5573 1.32085C64.3437 1.83929 65.9883 2.64573 67.4911 3.7402L65.5771 7.71485C64.2161 6.87959 62.8125 6.23156 61.3664 5.77073C59.9203 5.3099 58.4458 5.07949 56.943 5.07949C55.0432 5.07949 53.3703 5.51151 51.9242 6.37556C50.5064 7.23962 49.4006 8.44929 48.6066 10.0046C47.8411 11.5311 47.4583 13.3168 47.4583 15.3617C47.4583 17.3779 47.8411 19.1636 48.6066 20.7189C49.4006 22.2742 50.5064 23.4838 51.9242 24.3479C53.3703 25.2119 55.0432 25.644 56.943 25.644C58.4458 25.644 59.7927 25.3848 60.9836 24.8663C62.1745 24.3191 63.1669 23.5558 63.9609 22.5766V17.8675H56.5177V13.6336H69.1499V24.3047C67.8739 26.1768 66.2009 27.6313 64.131 28.6682C62.0894 29.705 59.6935 30.2234 56.943 30.2234Z" fill="#01A06A"/>
<path d="M79.8228 30.2234C78.4051 30.2234 77.1291 29.993 75.9949 29.5322C74.8891 29.0714 74.0101 28.3945 73.3579 27.5017C72.7341 26.58 72.4222 25.4568 72.4222 24.1319C72.4222 22.7782 72.7483 21.6837 73.4004 20.8485C74.0526 19.9844 74.9316 19.322 76.0375 18.8611C77.1433 18.3715 78.4051 18.0403 79.8228 17.8675L86.5855 17.0034C86.4154 15.6785 85.8766 14.7137 84.9693 14.1088C84.0903 13.504 83.027 13.2016 81.7793 13.2016C80.8436 13.2016 79.8654 13.3888 78.8446 13.7632C77.8522 14.1088 76.7463 14.6705 75.5271 15.4481L73.8683 11.8191C75.0876 10.9262 76.3777 10.2494 77.7387 9.78858C79.1281 9.29895 80.5459 9.05413 81.992 9.05413C85.1111 9.05413 87.4787 9.75977 89.0949 11.1711C90.7112 12.5536 91.5193 14.6417 91.5193 17.4355V29.7914H86.8407V27.1561C86.1035 28.2217 85.1536 28.9994 83.991 29.489C82.8285 29.9786 81.4391 30.2234 79.8228 30.2234ZM81.1839 26.2488C82.3464 26.2488 83.3247 26.0184 84.1186 25.5576C84.9409 25.0967 85.5647 24.4775 85.9901 23.6998C86.4437 22.9222 86.6706 22.1157 86.6706 21.2805V20.5028L81.354 21.1941C80.0213 21.3669 79.0289 21.6549 78.3767 22.0581C77.7246 22.4614 77.3985 23.0662 77.3985 23.8727C77.3985 24.6503 77.7246 25.2407 78.3767 25.644C79.0289 26.0472 79.9646 26.2488 81.1839 26.2488Z" fill="#01A06A"/>
<path d="M97.2854 29.7914V9.48616H101.964V12.8128C102.503 11.5743 103.24 10.667 104.176 10.091C105.111 9.51496 106.16 9.22694 107.323 9.22694C107.72 9.22694 108.074 9.25574 108.386 9.31335C108.698 9.34215 108.939 9.39975 109.109 9.48616V14.1953C108.712 14.1088 108.315 14.0368 107.919 13.9792C107.522 13.9216 107.125 13.8928 106.728 13.8928C105.423 13.8928 104.332 14.4257 103.453 15.4913C102.574 16.5282 102.134 18.0259 102.134 19.9844V29.7914H97.2854Z" fill="#01A06A"/>
<path d="M120.579 30.2234C118.792 30.2234 117.176 29.8058 115.73 28.9706C114.284 28.1065 113.135 26.8824 112.285 25.2983C111.434 23.7142 111.009 21.8277 111.009 19.6388C111.009 17.4498 111.434 15.5633 112.285 13.9792C113.135 12.3951 114.284 11.1855 115.73 10.3502C117.176 9.48616 118.792 9.05413 120.579 9.05413C122.081 9.05413 123.386 9.34215 124.492 9.91819C125.597 10.4654 126.476 11.1855 127.128 12.0783V0.932027H132.02V29.7914H127.384V26.8536C126.76 27.8617 125.867 28.6826 124.704 29.3162C123.542 29.921 122.166 30.2234 120.579 30.2234ZM121.684 25.9464C122.79 25.9464 123.768 25.6872 124.619 25.1687C125.47 24.6503 126.136 23.9159 126.618 22.9654C127.1 22.0149 127.341 20.9061 127.341 19.6388C127.341 18.3427 127.1 17.2339 126.618 16.3122C126.136 15.3617 125.47 14.6273 124.619 14.1088C123.768 13.5904 122.79 13.3312 121.684 13.3312C120.579 13.3312 119.586 13.5904 118.707 14.1088C117.856 14.6273 117.19 15.3617 116.708 16.3122C116.254 17.2339 116.028 18.3427 116.028 19.6388C116.028 20.9061 116.254 22.0149 116.708 22.9654C117.19 23.9159 117.856 24.6503 118.707 25.1687C119.586 25.6872 120.579 25.9464 121.684 25.9464Z" fill="#01A06A"/>
<path d="M147.609 30.2234C145.567 30.2234 143.724 29.8202 142.079 29.0138C140.435 28.2073 139.116 27.0265 138.124 25.4712C137.16 23.8871 136.678 21.9429 136.678 19.6388C136.678 17.4787 137.131 15.6065 138.039 14.0224C138.974 12.4383 140.208 11.2143 141.739 10.3502C143.299 9.48616 145.042 9.05413 146.971 9.05413C148.955 9.05413 150.685 9.44296 152.16 10.2206C153.634 10.9695 154.782 12.0063 155.605 13.3312C156.427 14.6561 156.838 16.1682 156.838 17.8675C156.838 18.3571 156.767 18.9043 156.625 19.5092C156.484 20.114 156.299 20.6037 156.072 20.9781H141.654C141.796 22.1014 142.136 23.0518 142.675 23.8295C143.242 24.5783 143.979 25.1543 144.886 25.5576C145.794 25.932 146.857 26.1192 148.076 26.1192C149.324 26.1192 150.458 25.932 151.479 25.5576C152.5 25.1543 153.464 24.6215 154.371 23.9591L155.987 27.5017C154.825 28.3945 153.535 29.0714 152.117 29.5322C150.728 29.993 149.225 30.2234 147.609 30.2234ZM141.654 17.5219H151.819C151.848 17.4355 151.862 17.3635 151.862 17.3059C151.862 17.2194 151.862 17.1474 151.862 17.0898C151.862 16.2546 151.692 15.5345 151.351 14.9297C151.011 14.3249 150.487 13.864 149.778 13.5472C149.097 13.2016 148.204 13.0288 147.098 13.0288C146.191 13.0288 145.354 13.216 144.589 13.5904C143.851 13.936 143.228 14.4401 142.717 15.1025C142.207 15.765 141.852 16.5714 141.654 17.5219Z" fill="#01A06A"/>
<path d="M161.541 29.7914V9.48616H166.219V12.2511C166.815 11.2719 167.651 10.4942 168.729 9.91819C169.806 9.34215 171.125 9.05413 172.684 9.05413C174.981 9.05413 176.768 9.71657 178.044 11.0415C179.348 12.3663 180 14.4113 180 17.1762V29.7914H175.151V17.9107C175.151 16.3266 174.825 15.1745 174.173 14.4545C173.549 13.7056 172.585 13.3312 171.281 13.3312C169.75 13.3312 168.545 13.864 167.666 14.9297C166.815 15.9666 166.39 17.421 166.39 19.2932V29.7914H161.541Z" fill="#01A06A"/>
<path fill-rule="evenodd" clip-rule="evenodd" d="M9.13598 0.759375C11.715 0.23157 14.3977 0.610455 16.7294 1.83295C19.0612 3.05561 20.9002 5.04715 21.9343 7.46954C24.7074 7.80397 27.2626 9.14299 29.116 11.2339C30.9692 13.3248 31.9928 16.0226 31.9933 18.8174V27.9633C31.9933 28.5697 31.7525 29.1517 31.3241 29.5805C30.8955 30.0093 30.3142 30.251 29.7081 30.251H20.5672C18.3443 30.2485 16.1697 29.5982 14.3098 28.38C12.4501 27.1619 10.9855 25.4276 10.0939 23.3903H2.28524C1.67916 23.3903 1.09784 23.1499 0.669275 22.7211C0.240711 22.2922 0 21.7103 0 21.1038V11.9579C0.000453972 9.3238 0.91033 6.7708 2.57509 4.73024C4.23971 2.68989 6.55709 1.2873 9.13598 0.759375ZM22.667 9.91526C22.9496 11.464 22.9084 13.0554 22.5476 14.5877C22.1867 16.1198 21.5133 17.5605 20.5696 18.8199C19.6257 20.0794 18.4318 21.1303 17.0628 21.9062C15.6938 22.6822 14.1792 23.1669 12.6142 23.3294C13.4133 24.7351 14.5702 25.9041 15.9668 26.718C17.3635 27.532 18.9508 27.9615 20.5672 27.9633H29.7081V18.8174C29.7081 16.7569 29.0131 14.7566 27.7351 13.141C26.4572 11.5253 24.6712 10.3886 22.667 9.91526ZM14.6494 11.6917C14.6481 10.9898 13.2228 11.6929 11.4648 11.6929C9.70676 11.6929 8.28146 10.9898 8.2801 11.6917C8.2801 12.3952 9.70592 12.9656 11.4648 12.9656C13.2236 12.9656 14.6494 12.3952 14.6494 11.6917ZM6.796 8.16992C6.20893 8.16992 5.73266 8.65346 5.73238 9.24972C5.7324 9.8462 6.20877 10.3295 6.796 10.3295C7.3831 10.3293 7.85836 9.8461 7.85839 9.24972C7.8581 8.65356 7.38294 8.17009 6.796 8.16992ZM15.713 8.16992C15.126 8.16992 14.6497 8.65346 14.6494 9.24972C14.6494 9.8462 15.1258 10.3295 15.713 10.3295C16.3001 10.3293 16.7754 9.8461 16.7754 9.24972C16.7751 8.65356 16.3 8.17009 15.713 8.16992Z" fill="#01A06A"/>
</svg>
